<?xml version="1.0" ?><svg fill="none" height="24" viewBox="0 0 24 24" width="24" xmlns="http://www.w3.org/2000/svg"><rect height="16" rx="5" stroke="#6B7B94" stroke-linecap="round" stroke-linejoin="round" width="16" x="4" y="4"/><path clip-rule="evenodd" d="M13.8699 16.466C14.0919 16.1135 14.2234 15.6133 14.2925 15.076C14.3821 14.3787 14.0789 13.6729 13.8236 13.2151H14.4685C16.1723 13.2151 17.3889 11.6104 16.8851 10.0275L16.7052 9.46229C16.2392 7.99822 14.847 7 13.271 7H11.4814C10.3765 7 9.3528 7.70866 9.16359 8.8227C9.05827 9.44283 8.97566 10.1917 9.00656 10.929C9.03722 11.6606 9.1809 12.4182 9.55999 13.0277C9.8727 13.5305 10.1334 13.8258 10.4514 14.081C10.6302 14.2245 10.8403 14.363 11.0768 14.519C11.2198 14.6133 11.3724 14.714 11.5337 14.826C11.8621 15.0542 11.9635 15.386 12.0394 15.7886C12.0456 15.8219 12.0519 15.8572 12.0585 15.894C12.0873 16.0551 12.1208 16.243 12.1754 16.3969C12.248 16.602 12.3914 16.8486 12.7047 16.9501C12.9403 17.0265 13.1802 17.0163 13.3984 16.9113C13.6048 16.812 13.7573 16.6448 13.8699 16.466Z" fill-rule="evenodd" stroke="#6B7B94" stroke-linecap="round" stroke-linejoin="round"/><path d="M9.36767 7.64499C9.14491 7.27639 8.88324 7.05669 8.61089 7.00958C8.33855 6.96247 8.06585 7.08974 7.82223 7.37767C7.5786 7.66559 7.37329 8.10325 7.22842 8.64343C7.08356 9.18361 7.00465 9.80582 7.0002 10.443C6.99575 11.0801 7.06593 11.708 7.20317 12.2589C7.34041 12.8098 7.5395 13.2628 7.77898 13.5691C8.01845 13.8754 8.28922 14.0234 8.56208 13.997C8.83494 13.9706 9.09954 13.7709 9.32734 13.4195" stroke="#6B7B94" stroke-linecap="round" stroke-linejoin="round"/></svg>