<?xml version="1.0" ?><svg fill="none" height="24" viewBox="0 0 24 24" width="24" xmlns="http://www.w3.org/2000/svg"><circle cx="12" cy="12" r="8" stroke="#6B7B94" stroke-linecap="round" stroke-linejoin="round"/><path clip-rule="evenodd" d="M13.8699 7.53402C14.0919 7.88653 14.2234 8.38668 14.2925 8.92396C14.3821 9.62126 14.0789 10.3271 13.8236 10.7849H14.4685C16.1723 10.7849 17.3889 12.3896 16.8851 13.9725L16.7052 14.5377C16.2392 16.0018 14.847 17 13.271 17H11.4814C10.3765 17 9.3528 16.2913 9.16359 15.1773C9.05827 14.5572 8.97566 13.8083 9.00656 13.071C9.03722 12.3394 9.1809 11.5818 9.55999 10.9723C9.8727 10.4695 10.1334 10.1742 10.4514 9.91903C10.6302 9.77552 10.8403 9.63696 11.0768 9.48099C11.2198 9.38667 11.3724 9.28598 11.5337 9.17398C11.8621 8.94584 11.9635 8.61395 12.0394 8.21137C12.0456 8.17813 12.0519 8.14275 12.0585 8.10597C12.0873 7.94492 12.1208 7.75696 12.1754 7.60311C12.248 7.398 12.3914 7.1514 12.7047 7.04985C12.9403 6.97346 13.1802 6.9837 13.3984 7.08865C13.6048 7.18796 13.7573 7.35518 13.8699 7.53402Z" fill-rule="evenodd" stroke="#6B7B94" stroke-linecap="round" stroke-linejoin="round"/><path d="M9.36767 16.355C9.14491 16.7236 8.88324 16.9433 8.61089 16.9904C8.33855 17.0375 8.06585 16.9103 7.82223 16.6223C7.5786 16.3344 7.37329 15.8968 7.22842 15.3566C7.08356 14.8164 7.00465 14.1942 7.0002 13.557C6.99575 12.9199 7.06593 12.292 7.20317 11.7411C7.34041 11.1902 7.5395 10.7372 7.77898 10.4309C8.01845 10.1246 8.28922 9.97663 8.56208 10.003C8.83494 10.0294 9.09954 10.2291 9.32734 10.5805" stroke="#6B7B94" stroke-linecap="round" stroke-linejoin="round"/></svg>